<svg height='16px' width='16px'  fill="#666666" xmlns="http://www.w3.org/2000/svg" xmlns:xlink="http://www.w3.org/1999/xlink" version="1.1" x="0px" y="0px" viewBox="0 0 32 32" style="enable-background:new 0 0 32 32;" xml:space="preserve"><g><g><path d="M10,23c-0.2558594,0-0.5117188-0.0976563-0.7070313-0.2929688c-0.390625-0.390625-0.390625-1.0234375,0-1.4140625l12-12    c0.390625-0.390625,1.0234375-0.390625,1.4140625,0s0.390625,1.0234375,0,1.4140625l-12,12    C10.5117188,22.9023438,10.2558594,23,10,23z"></path></g><g><path d="M22,23c-0.2558594,0-0.5117188-0.0976563-0.7070313-0.2929688l-12-12c-0.390625-0.390625-0.390625-1.0234375,0-1.4140625    s1.0234375-0.390625,1.4140625,0l12,12c0.390625,0.390625,0.390625,1.0234375,0,1.4140625    C22.5117188,22.9023438,22.2558594,23,22,23z"></path></g></g></svg>