<svg height='16px' width='16px'  fill="#666666" xmlns="http://www.w3.org/2000/svg" xmlns:xlink="http://www.w3.org/1999/xlink" version="1.1" x="0px" y="0px" viewBox="0 0 95 95" enable-background="new 0 0 95 95" xml:space="preserve"><g><path d="M48.535,30.039V6.289h-3.089v18.727c0,0.957-0.776,1.732-1.733,1.732c-0.959,0-1.733-0.775-1.733-1.732V6.289h-3.41v18.727   c0,0.957-0.775,1.732-1.732,1.732c-0.958,0-1.733-0.775-1.733-1.732V6.289h-3.41v18.727c0,0.957-0.774,1.732-1.733,1.732   c-0.957,0-1.733-0.775-1.733-1.732V6.289h-3.089v23.75c0,5.293,3.517,9.76,8.341,11.205v44.109c0,1.855,1.504,3.357,3.358,3.357   s3.358-1.502,3.358-3.357V41.242C45.019,39.799,48.535,35.332,48.535,30.039z"></path><path d="M67.282,6.449c-2.34,0-4.452,0.943-6.28,2.801c-8.976,9.129-8.719,40.105-8.659,43.605l0.042,2.537h12.317v30.738   c0,1.424,1.155,2.58,2.58,2.58s2.58-1.156,2.58-2.58V9.029C69.862,7.604,68.707,6.449,67.282,6.449z"></path></g></svg>