<svg height='100px' width='100px'  fill="#1b5d89" xmlns="http://www.w3.org/2000/svg" viewBox="0 0 32 32" x="0px" y="0px"><title>fill-web simple</title><g data-name="Layer 2"><path d="M28.17,17.13,23,14.36h0c-1.42,2.66-2.9,5-3,5.08L19.1,20.9l-.92-1.45c-.07-.12-1.87-2.93-3.41-5.91a.3.3,0,0,1-.06-.11L4.06,17.58a2.19,2.19,0,0,0-.67,3.66l9,8.19a2.2,2.2,0,0,0,2.68.21l13.25-8.75A2.19,2.19,0,0,0,28.17,17.13Z"></path><path d="M19.1,8.13a.71.71,0,1,0-.71-.71A.71.71,0,0,0,19.1,8.13Z"></path><path d="M16,13.58c1.46,2.76,3.07,5.28,3.07,5.28s1.36-2.13,2.72-4.63c.06-.13.14-.25.21-.38,1.29-2.38,2.49-5,2.49-6.43a5.42,5.42,0,1,0-10.84,0c0,1.25,1,3.47,2.06,5.62Zm3.07-8a1.81,1.81,0,1,1-1.8,1.81A1.81,1.81,0,0,1,19.1,5.61Z"></path></g></svg>